# xmcd
#
# Track frame offsets: 
#        150
#        12130
#        24982
#        41965
#        54637
#        69745
#        84517
#        97782
#        115905
#        128032
#        144777
#        163360
#
# Disc length: 2462 seconds
#
# Revision: 5
# Processed by: cddbd v1.5.2PL0 Copyright (c) Steve Scherf et al.
# Submitted via: ExactAudioCopy v0.99pb5
#
DISCID=99099c0c
DTITLE=Various Artist - Chapter VII: All Men Are Liars
DYEAR=1998
DGENRE=Blues
TTITLE0=CeDell Davis - Keep on Snatchin' It Back
TTITLE1=Bob Log III - All the Rockets Go Bang
TTITLE2=Johnny Farmer - Ocean Blues
TTITLE3=20 Miles - East St. Louis
TTITLE4=Junior Kimbrough - You're Gonna Find Your Mistake
TTITLE5=T-Model Ford - To the Left to the Right
TTITLE6=The Neckbones - You Can't Touch Her
TTITLE7=Paul Jones - Rob and Steal
TTITLE8=Elmo Williams - Hoopin' and Hollerin'
TTITLE9=Hasil Adkins - Things Are Movin' Way Too Fast
TTITLE10=Robert Cage - Get Out of Here
TTITLE11=R.L. Burnside - It's Bad You Know
EXTD=
EXTT0=
EXTT1=
EXTT2=
EXTT3=
EXTT4=
EXTT5=
EXTT6=
EXTT7=
EXTT8=
EXTT9=
EXTT10=
EXTT11=
PLAYORDER=
